<svg xmlns="http://www.w3.org/2000/svg" viewBox="0 0 844.75 224.58"><defs><style>.cls-1{fill:##272727;}.cls-2{fill:#5963ab;}.cls-3{fill:#46abe1;}</style></defs><g id="Layer_2" data-name="Layer 2"><g id="Layer_1-2" data-name="Layer 1"><path class="cls-1" d="M127.87,0V43.2H83.55V224.58H43.85V43.2H0V0Z"/><path class="cls-2" d="M239,38.74a58.39,58.39,0,0,1,23.77,23q8.66,15,8.66,35.08t-8.66,35.08a58.33,58.33,0,0,1-23.77,23q-15.12,8-34.28,8t-34.39-8a58.2,58.2,0,0,1-23.89-23q-8.66-15-8.65-35.08t8.65-35.08a58.26,58.26,0,0,1,23.89-23q15.24-8,34.39-8T239,38.74ZM185.68,73.13q-7.74,8.2-7.73,23.66t7.73,23.54a25.31,25.31,0,0,0,19,8.08,25,25,0,0,0,18.93-8.08q7.62-8.07,7.62-23.54t-7.62-23.66a24.8,24.8,0,0,0-18.93-8.19A25.16,25.16,0,0,0,185.68,73.13Z"/><path class="cls-1" d="M428.49,123.83a71.94,71.94,0,0,1-29.54,29q-19.27,10.4-45.36,10.39H292V0h61.62q26.32,0,45.47,10.16a70.88,70.88,0,0,1,29.43,28.62q10.27,18.47,10.27,42.46T428.49,123.83ZM386,115.63q12.81-12.22,12.81-34.39T386,46.85q-12.81-12.23-35.89-12.23H331.44v93.25h18.69Q373.22,127.87,386,115.63Z"/><path class="cls-1" d="M589.25,34.39V163.18h-39.7V139.87a42.82,42.82,0,0,1-16.51,18q-11,6.7-25.5,6.7-22.16,0-35.2-14.78t-13-40.62V34.39h39.24v69.94q0,13.15,6.81,20.42T523.7,132q12,0,18.92-7.61t6.93-21.7V34.39Z"/><path class="cls-1" d="M689.41,129.25v33.93H671.64q-22.62,0-35.2-11.19t-12.57-37.05V67.63H606.56V34.39h17.31V2.77h39.46V34.39h25.85V67.63H663.33v48q0,7.62,3.12,10.62c2.08,2,5.57,3,10.5,3Z"/><path class="cls-1" d="M741.34,34.39l30.93,78.94,28.85-78.94h43.63L764.42,224.58H721l30.24-66.25-54-123.94Z"/><polygon class="cls-1" points="156.84 193.58 764.38 193.58 764.38 224.58 156.84 224.58 130.71 209.08 156.84 193.58"/><rect class="cls-1" x="669.53" y="34.39" width="46.1" height="33.25"/><polygon class="cls-3" points="751.37 158.43 772.24 206.31 844.75 34.62 801.17 34.62 772.36 113.47 768.52 103.68 727.52 103.68 751.38 158.42 751.37 158.43"/></g></g></svg>